<?xml version="1.0" encoding="utf-8"?>
<!-- Generator: Adobe Illustrator 18.1.1, SVG Export Plug-In . SVG Version: 6.00 Build 0)  -->
<!DOCTYPE svg PUBLIC "-//W3C//DTD SVG 1.1//EN" "http://www.w3.org/Graphics/SVG/1.1/DTD/svg11.dtd" [
	<!ENTITY st0 "fill:#3B5998;">
	<!ENTITY st1 "fill:#FFFFFF;">
]>
<svg version="1.1" id="Blue" xmlns="http://www.w3.org/2000/svg" xmlns:xlink="http://www.w3.org/1999/xlink" x="0px" y="0px"
	 viewBox="0 0 60 60" style="enable-background:new 0 0 60 60;" xml:space="preserve">
<g>
	<path id="Blue_1_" style="&st0;" d="M56.7,60c1.8,0,3.3-1.5,3.3-3.3V3.3C60,1.5,58.5,0,56.7,0H3.3C1.5,0,0,1.5,0,3.3v53.4
		C0,58.5,1.5,60,3.3,60H56.7z"/>
	<path id="f" style="&st1;" d="M41.4,60V36.8h7.8l1.2-9.1h-9v-5.8c0-2.6,0.7-4.4,4.5-4.4l4.8,0V9.4c-0.8-0.1-3.7-0.4-7-0.4
		C36.8,9.1,32,13.3,32,21v6.7h-7.8v9.1H32V60H41.4z"/>
</g>
<g>
</g>
<g>
</g>
<g>
</g>
<g>
</g>
<g>
</g>
<g>
</g>
</svg>
