<?xml version="1.0" encoding="utf-8"?>
<!-- Generator: Adobe Illustrator 18.1.1, SVG Export Plug-In . SVG Version: 6.00 Build 0)  -->
<!DOCTYPE svg PUBLIC "-//W3C//DTD SVG 1.1//EN" "http://www.w3.org/Graphics/SVG/1.1/DTD/svg11.dtd" [
	<!ENTITY st0 "fill:#55ACEE;">
]>
<svg version="1.1" id="Layer_1" xmlns="http://www.w3.org/2000/svg" xmlns:xlink="http://www.w3.org/1999/xlink" x="0px" y="0px"
	 viewBox="0 0 60 60" style="enable-background:new 0 0 60 60;" xml:space="preserve">
<path style="&st0;" d="M60,11.4c-2.2,1-4.6,1.6-7.1,1.9c2.5-1.5,4.5-3.9,5.4-6.8c-2.4,1.4-5,2.4-7.8,3c-2.2-2.4-5.4-3.9-9-3.9
	c-6.8,0-12.3,5.5-12.3,12.3c0,1,0.1,1.9,0.3,2.8C19.3,20.2,10.2,15.3,4.2,7.9c-1.1,1.8-1.7,3.9-1.7,6.2c0,4.3,2.2,8,5.5,10.2
	c-2-0.1-3.9-0.6-5.6-1.5c0,0.1,0,0.1,0,0.2c0,6,4.2,10.9,9.9,12.1c-1,0.3-2.1,0.4-3.2,0.4c-0.8,0-1.6-0.1-2.3-0.2
	c1.6,4.9,6.1,8.4,11.5,8.5C14,47.1,8.7,49,2.9,49c-1,0-2-0.1-2.9-0.2c5.4,3.5,11.9,5.5,18.9,5.5c22.6,0,35-18.8,35-35
	c0-0.5,0-1.1,0-1.6C56.3,16,58.3,13.9,60,11.4z"/>
<g>
</g>
<g>
</g>
<g>
</g>
<g>
</g>
<g>
</g>
<g>
</g>
</svg>
