<?xml version="1.0" encoding="UTF-8" standalone="no"?>
<!DOCTYPE svg PUBLIC "-//W3C//DTD SVG 1.1//EN" "http://www.w3.org/Graphics/SVG/1.1/DTD/svg11.dtd">
<svg width="100%" height="100%" viewBox="0 0 440 44" version="1.1" xmlns="http://www.w3.org/2000/svg" xmlns:xlink="http://www.w3.org/1999/xlink" xml:space="preserve" style="fill-rule:evenodd;clip-rule:evenodd;stroke-linejoin:round;stroke-miterlimit:1.41421;">
    <g transform="matrix(1.00751,4.05789e-17,4.05789e-17,0.841832,-507.132,-357.816)">
        <rect x="493.428" y="425.045" width="456.572" height="52.267" style="fill:rgb(255,0,27);"/>
    </g>
    <g transform="matrix(1,0,0,1,-233.529,-390.223)">
        <path d="M340.564,424.148C340.384,422.918 340.324,421.838 340.324,420.248L340.324,405.068C340.324,403.268 340.384,401.888 340.564,400.118C339.484,400.238 339.034,400.268 337.504,400.268L334.744,400.268C333.334,400.268 332.674,400.238 331.744,400.088L331.744,403.898C332.854,403.778 333.724,403.718 334.834,403.718L336.274,403.718L336.274,420.248C336.274,421.808 336.214,422.978 336.034,424.148L340.564,424.148Z" style="fill:rgb(235,235,235);fill-rule:nonzero;"/>
        <path d="M358.594,424.718C363.934,424.718 367.444,421.058 367.444,415.508C367.444,409.958 363.994,406.418 358.564,406.418C353.104,406.418 349.624,409.988 349.624,415.568C349.624,421.178 353.104,424.718 358.594,424.718ZM358.564,409.538C361.744,409.538 363.574,411.758 363.574,415.628C363.574,419.288 361.654,421.538 358.534,421.538C355.414,421.538 353.494,419.258 353.494,415.568C353.494,411.818 355.414,409.538 358.564,409.538Z" style="fill:rgb(235,235,235);fill-rule:nonzero;"/>
        <path d="M374.764,424.148C374.584,422.858 374.524,421.718 374.524,420.248L374.524,414.188C375.844,411.218 377.614,409.718 379.774,409.718C380.914,409.718 381.814,410.168 382.294,410.948C382.654,411.518 382.804,412.328 382.804,413.588L382.804,420.248C382.804,421.778 382.744,422.798 382.594,424.148L386.944,424.148C386.764,423.038 386.704,421.898 386.704,420.248L386.704,413.048C386.704,411.038 386.404,409.838 385.684,408.848C384.604,407.378 382.894,406.628 380.584,406.628C377.884,406.628 376.294,407.468 374.464,409.808C374.524,409.058 374.524,408.968 374.524,408.518L374.524,406.928L370.444,406.928C370.624,408.158 370.684,409.178 370.684,410.828L370.684,420.248C370.684,421.928 370.624,422.858 370.444,424.148L374.764,424.148Z" style="fill:rgb(235,235,235);fill-rule:nonzero;"/>
        <path d="M402.214,424.148C402.034,422.918 401.974,421.838 401.974,420.248L401.974,405.068C401.974,403.268 402.034,401.888 402.214,400.118C401.134,400.238 400.684,400.268 399.154,400.268L396.394,400.268C394.984,400.268 394.324,400.238 393.394,400.088L393.394,403.898C394.504,403.778 395.374,403.718 396.484,403.718L397.924,403.718L397.924,420.248C397.924,421.808 397.864,422.978 397.684,424.148L402.214,424.148Z" style="fill:rgb(235,235,235);fill-rule:nonzero;"/>
        <path d="M426.694,424.148C426.514,423.008 426.454,421.868 426.454,420.248L426.454,415.238L432.184,415.238C435.064,415.238 437.104,414.548 438.574,413.078C439.894,411.698 440.584,409.838 440.584,407.558C440.584,405.398 439.954,403.598 438.724,402.398C437.284,400.958 435.244,400.268 432.334,400.268L426.064,400.268C424.474,400.268 423.544,400.238 422.254,400.178C422.434,401.528 422.494,402.608 422.494,404.048L422.494,420.278C422.494,421.898 422.434,422.948 422.254,424.148L426.694,424.148ZM426.454,411.788L426.454,403.718L432.184,403.718C433.774,403.718 434.764,404.048 435.454,404.798C436.114,405.488 436.444,406.478 436.444,407.678C436.444,410.318 434.944,411.788 432.184,411.788L426.454,411.788Z" style="fill:rgb(235,235,235);fill-rule:nonzero;"/>
        <path d="M460.534,420.308C459.274,420.458 458.314,420.518 456.274,420.518L447.874,420.518L447.874,404.678C447.874,402.488 447.934,401.498 448.114,400.268L443.584,400.268C443.764,401.558 443.824,402.638 443.824,404.708L443.824,420.278C443.824,422.018 443.764,423.128 443.584,424.238C444.664,424.178 445.714,424.148 447.394,424.148L456.274,424.148C458.404,424.148 459.454,424.208 460.534,424.358L460.534,420.308Z" style="fill:rgb(235,235,235);fill-rule:nonzero;"/>
        <path d="M484.654,424.148C484.234,423.368 483.874,422.528 483.124,420.608L476.464,403.298C475.774,401.468 475.594,400.988 475.444,400.268L470.224,400.268C470.074,401.048 469.834,401.798 469.264,403.298L462.664,420.608C462.124,421.988 461.524,423.338 461.074,424.148L465.994,424.148C466.234,422.888 466.354,422.438 466.894,420.998L468.094,417.728L477.694,417.728L478.894,420.998C479.224,421.868 479.554,423.158 479.734,424.148L484.654,424.148ZM476.614,414.278L469.174,414.278L472.294,405.398C472.384,405.128 472.384,405.128 472.864,403.718C473.194,404.708 473.284,405.068 473.404,405.398L476.614,414.278Z" style="fill:rgb(235,235,235);fill-rule:nonzero;"/>
        <path d="M498.634,424.148C498.454,423.008 498.394,421.778 498.394,420.278L498.394,414.368L505.324,403.358C505.834,402.518 506.974,400.868 507.394,400.268L502.174,400.268C501.964,401.048 501.514,401.948 500.764,403.238L496.354,410.588L492.004,403.208C491.194,401.888 490.804,401.078 490.564,400.268L485.314,400.268C486.274,401.648 486.964,402.638 487.414,403.358L494.344,414.338L494.344,420.278C494.344,421.808 494.254,423.008 494.104,424.148L498.634,424.148Z" style="fill:rgb(235,235,235);fill-rule:nonzero;"/>
        <path d="M526.894,420.368C525.604,420.518 524.734,420.578 523.054,420.578L514.054,420.578L514.054,413.498L521.374,413.498C523.234,413.498 524.044,413.528 525.274,413.708L525.274,409.778C523.954,409.928 522.934,409.988 521.374,409.988L514.084,409.988L514.084,403.808L522.724,403.808C524.494,403.808 525.454,403.868 526.594,404.018L526.594,400.058C525.214,400.208 524.224,400.268 522.724,400.268L513.664,400.268C511.834,400.268 511.054,400.238 509.854,400.178C510.034,401.588 510.094,402.488 510.094,404.048L510.094,420.278C510.094,422.048 510.034,423.038 509.854,424.238C511.054,424.178 511.864,424.148 513.664,424.148L523.024,424.148C524.854,424.148 525.814,424.208 526.894,424.358L526.894,420.368Z" style="fill:rgb(235,235,235);fill-rule:nonzero;"/>
        <path d="M550.594,424.148C550.174,423.338 549.424,421.718 549.184,421.178C546.214,414.158 545.644,413.318 543.754,412.718C545.464,412.238 546.244,411.848 547.084,410.978C548.104,409.928 548.614,408.428 548.614,406.508C548.614,402.548 546.004,400.268 541.444,400.268L534.244,400.268C532.594,400.268 531.664,400.238 530.404,400.178C530.584,401.588 530.644,402.488 530.644,404.078L530.644,420.248C530.644,422.078 530.584,422.888 530.404,424.148L534.874,424.148C534.694,422.978 534.634,422.018 534.634,420.218L534.634,414.098L539.104,414.098C541.414,414.098 542.464,415.208 544.084,419.348C545.074,421.898 545.584,423.428 545.644,424.148L550.594,424.148ZM534.634,410.678L534.634,403.688L540.784,403.688C543.244,403.688 544.474,404.798 544.474,406.958C544.474,408.098 544.144,408.968 543.514,409.598C542.824,410.288 541.774,410.678 540.664,410.678L534.634,410.678Z" style="fill:rgb(235,235,235);fill-rule:nonzero;"/>
        <path d="M553.144,400.268L553.744,408.218L556.204,408.218L556.804,400.268L553.144,400.268Z" style="fill:rgb(235,235,235);fill-rule:nonzero;"/>
        <path d="M559.834,417.158C560.014,418.388 560.134,418.958 560.404,419.648C560.974,421.118 561.844,422.258 563.044,423.068C564.484,424.028 566.884,424.628 569.344,424.628C572.554,424.628 574.924,423.878 576.514,422.348C577.744,421.118 578.404,419.378 578.404,417.248C578.404,414.998 577.624,413.348 575.914,412.088C574.834,411.338 573.394,410.768 571.024,410.258C567.694,409.508 567.454,409.448 566.794,409.178C565.414,408.578 564.754,407.708 564.754,406.448C564.754,404.498 566.524,403.178 569.134,403.178C570.784,403.178 572.104,403.688 572.884,404.618C573.394,405.218 573.604,405.728 573.784,406.748L578.074,406.238C577.714,404.648 577.354,403.748 576.604,402.758C575.134,400.778 572.554,399.728 569.134,399.728C563.974,399.728 560.614,402.428 560.614,406.598C560.614,408.608 561.394,410.258 562.924,411.458C564.004,412.298 565.204,412.778 567.454,413.288C571.594,414.248 571.774,414.278 572.674,414.758C573.604,415.268 574.174,416.288 574.174,417.518C574.174,419.768 572.374,421.118 569.374,421.118C567.424,421.118 565.864,420.488 564.994,419.348C564.454,418.658 564.274,418.058 564.154,416.708L559.834,417.158Z" style="fill:rgb(235,235,235);fill-rule:nonzero;"/>
    </g>
</svg>
